# File created by Blade
# Date/Time:  Wed Jan 21 14:55:23 2015
#---------------------------------------------------------
:version 1.10
:name HOM
:units
  mass 1.0
  length 1.000000
  angle deg
:documentation
     Acclaim Skeleton File
:root
   axis xyz
   order TX TY TZ RX RY RZ
   position 0.000000 0.000000 0.000000
   orientation 0 0 0
:bonedata
   begin
      id 1
      name Spine_dum
      direction 0.000000 1.000000 0.000000
      length 7.067664
      axis 0.0 0.0 0.0 xyz
   end
   begin
      id 2
      name LeftUpLeg_dum
      direction 1.000000 0.000000 0.000000
      length 4.013002
      axis 0.0 0.0 0.0 xyz
   end
   begin
      id 3
      name RightUpLeg_dum
      direction -1.000000 0.000000 0.000000
      length 4.013002
      axis 0.0 0.0 0.0 xyz
   end
   begin
      id 4
      name Spine
      direction 0.000000 1.000000 0.000000
      length 0.000000
      axis 0.0 0.0 0.0 xyz
      dof rx ry rz
   end
   begin
      id 5
      name Spine_dum1
      direction 0.000000 1.000000 0.000000
      length 15.039886
      axis 0.0 0.0 0.0 xyz
   end
   begin
      id 6
      name Spine_dum2
      direction 0.000000 1.000000 0.000000
      length 10.530368
      axis 0.0 0.0 0.0 xyz
   end
   begin
      id 7
      name Spine_dum3
      direction 0.000000 1.000000 0.000000
      length 10.530368
      axis 0.0 0.0 0.0 xyz
   end
   begin
      id 8
      name Head
      direction 0.000000 1.000000 0.000000
      length 4.527550
      axis 0.0 0.0 0.0 xyz
      dof rx ry rz
   end
   begin
      id 9
      name LeftShoulder
      direction 1.000000 0.000000 0.000000
      length 7.028855
      axis 0.0 0.0 -90.0 xyz
      dof rx ry rz
   end
   begin
      id 10
      name LeftArm
      direction 1.000000 0.000000 0.000000
      length 10.797705
      axis 0.0 0.0 -90.0 xyz
      dof rx ry rz
   end
   begin
      id 11
      name LeftForeArm
      direction 1.000000 0.000000 0.000000
      length 7.907442
      axis 0.0 0.0 -90.0 xyz
      dof ry rz rx
   end
   begin
      id 12
      name LeftHand
      direction 0.000000 0.000000 0.000000
      length 0.000000
      axis 0.0 0.0 -90.0 xyz
      dof rx ry rz
   end
   begin
      id 13
      name LeftHand_dum1
      direction 0.000000 0.000000 0.000000
      length 0.000000
      axis 0.0 0.0 -90.0 xyz
   end
   begin
      id 14
      name LeftHand_dum2
      direction 1.000000 0.000000 0.000000
      length 3.937000
      axis 0.0 0.0 -90.0 xyz
   end
   begin
      id 15
      name LeftHandThumb1
      direction 0.000000 0.000000 1.000000
      length 3.937000
      axis 0.0 0.0 -90.0 xyz
      dof rx rz ry
   end
   begin
      id 16
      name RightShoulder
      direction -1.000000 0.000000 0.000000
      length 7.028855
      axis 0.0 0.0 90.0 xyz
      dof rx ry rz
   end
   begin
      id 17
      name RightArm
      direction -1.000000 0.000000 0.000000
      length 10.797705
      axis 0.0 0.0 90.0 xyz
      dof rx ry rz
   end
   begin
      id 18
      name RightForeArm
      direction -1.000000 0.000000 0.000000
      length 7.907442
      axis 0.0 0.0 90.0 xyz
      dof ry rz rx
   end
   begin
      id 19
      name RightHand
      direction 0.000000 0.000000 0.000000
      length 0.000000
      axis 0.0 0.0 90.0 xyz
      dof rx ry rz
   end
   begin
      id 20
      name RightHand_dum1
      direction 0.000000 0.000000 0.000000
      length 0.000000
      axis 0.0 0.0 90.0 xyz
   end
   begin
      id 21
      name RightHand_dum2
      direction -1.000000 0.000000 0.000000
      length 3.937000
      axis 0.0 0.0 90.0 xyz
   end
   begin
      id 22
      name RightHandThumb1
      direction 0.000000 0.000000 1.000000
      length 3.937000
      axis 0.0 0.0 90.0 xyz
      dof rx rz ry
   end
   begin
      id 23
      name LeftUpLeg
      direction 0.000000 -1.000000 0.000000
      length 16.899758
      axis 0.0 0.0 0.0 xyz
      dof rx ry rz
   end
   begin
      id 24
      name LeftLeg
      direction 0.000000 -1.000000 0.000000
      length 17.389183
      axis 0.0 0.0 0.0 xyz
      dof rx ry rz
   end
   begin
      id 25
      name LeftFoot
      direction 0.000000 -0.258819 0.965926
      length 4.924528
      axis 15.0 0.0 0.0 xyz
      dof rx ry rz
   end
   begin
      id 26
      name LeftToeBase
      direction 0.000000 0.000000 1.000000
      length 2.952750
      axis 0.0 0.0 0.0 xyz
      dof rx ry rz
   end
   begin
      id 27
      name RightUpLeg
      direction 0.000000 -1.000000 0.000000
      length 16.899758
      axis 0.0 0.0 0.0 xyz
      dof rx ry rz
   end
   begin
      id 28
      name RightLeg
      direction 0.000000 -1.000000 0.000000
      length 17.389183
      axis 0.0 0.0 0.0 xyz
      dof rx ry rz
   end
   begin
      id 29
      name RightFoot
      direction 0.000000 -0.258819 0.965926
      length 4.924528
      axis 15.0 0.0 0.0 xyz
      dof rx ry rz
   end
   begin
      id 30
      name RightToeBase
      direction 0.000000 0.000000 1.000000
      length 2.952750
      axis 0.0 0.0 0.0 xyz
      dof rx ry rz
   end
:hierarchy
   begin
      root Spine_dum LeftUpLeg_dum RightUpLeg_dum
      Spine_dum Spine
      LeftUpLeg_dum LeftUpLeg
      RightUpLeg_dum RightUpLeg
      Spine Spine_dum1 Spine_dum2 Spine_dum3
      Spine_dum1 Head
      Spine_dum2 LeftShoulder
      Spine_dum3 RightShoulder
      LeftShoulder LeftArm
      LeftArm LeftForeArm
      LeftForeArm LeftHand
      LeftHand LeftHand_dum1 LeftHand_dum2
      LeftHand_dum1 LeftHandThumb1
      RightShoulder RightArm
      RightArm RightForeArm
      RightForeArm RightHand
      RightHand RightHand_dum1 RightHand_dum2
      RightHand_dum1 RightHandThumb1
      LeftUpLeg LeftLeg
      LeftLeg LeftFoot
      LeftFoot LeftToeBase
      RightUpLeg RightLeg
      RightLeg RightFoot
      RightFoot RightToeBase
   end

# File created by Blade
# Date/Time:  Wed Jan 21 14:55:15 2015
# Frame Rate: 120.000 fps
#------------------------------------------------------
:FULLY-SPECIFIED
:DEGREES
43
root 18.485829 35.535218 -22.542258 -172.496429 -2.874278 -179.336770
Spine -19.531532 -1.608646 -0.707480
Head 11.276289 -1.820579 2.509791
LeftShoulder -13.422016 -33.949387 23.400120
LeftArm 4.838089 2.616916 -4.116248
LeftForeArm 12.777740 -0.000000 -2.500840
LeftHand -8.806597 -0.000000 -4.587502
LeftHandThumb1 -26.253704 0.000000 33.147579
RightShoulder -13.363690 -4.779658 -11.575155
RightArm 5.292848 35.569142 5.247094
RightForeArm -36.259041 -0.000000 5.327169
RightHand -7.557386 -0.000000 8.088567
RightHandThumb1 -24.326973 -0.000000 -32.862282
LeftUpLeg 0.578648 8.548989 1.886862
LeftLeg -5.773528 -0.000000 0.000000
LeftFoot -20.137198 27.203076 -13.932386
LeftToeBase 26.151635 -0.000000 -0.000000
RightUpLeg 1.075934 -9.493406 0.920768
RightLeg -3.491497 -0.000000 0.000000
RightFoot -22.211409 -27.048013 15.909160
RightToeBase 24.024145 -0.000000 -0.000000
44
root 18.486806 35.534816 -22.534970 -172.504268 -2.872987 -179.342250
Spine -19.499708 -1.585634 -0.719421
Head 11.264793 -1.854017 2.498452
LeftShoulder -13.401571 -33.929277 23.336961
LeftArm 4.847792 2.679764 -4.089019
LeftForeArm 12.718139 -0.000000 -2.434501
LeftHand -8.821696 -0.000000 -4.467495
LeftHandThumb1 -26.253704 0.000000 33.147579
RightShoulder -13.356629 -4.766530 -11.558099
RightArm 5.253982 35.528060 5.239276
RightForeArm -36.226538 -0.000000 5.357396
RightHand -7.547183 -0.000000 8.070267
RightHandThumb1 -24.326973 -0.000000 -32.862282
LeftUpLeg 0.565088 8.536551 1.879528
LeftLeg -5.756914 -0.000000 0.000000
LeftFoot -20.139400 27.234619 -13.909081
LeftToeBase 26.188397 -0.000000 -0.000000
RightUpLeg 1.074996 -9.437177 0.914746
RightLeg -3.494800 -0.000000 0.000000
RightFoot -22.221285 -27.099099 15.899822
RightToeBase 24.056033 -0.000000 -0.000000
45
root 18.488511 35.534841 -22.530249 -172.513979 -2.861612 -179.348125
Spine -19.464105 -1.566919 -0.736787
Head 11.232973 -1.912007 2.506213
LeftShoulder -13.427687 -33.915223 23.309143
LeftArm 4.873460 2.772249 -4.086091
LeftForeArm 12.626730 -0.000000 -2.366809
LeftHand -8.846336 0.000000 -4.335089
LeftHandThumb1 -26.253704 0.000000 33.147579
RightShoulder -13.349884 -4.765456 -11.512056
RightArm 5.238297 35.519115 5.235283
RightForeArm -36.228073 -0.000000 5.375135
RightHand -7.571056 -0.000000 8.016822
RightHandThumb1 -24.326973 -0.000000 -32.862282
LeftUpLeg 0.561656 8.535406 1.874395
LeftLeg -5.740102 -0.000000 0.000000
LeftFoot -20.150823 27.241164 -13.912093
LeftToeBase 26.226095 -0.000000 -0.000000
RightUpLeg 1.071619 -9.419196 0.909971
RightLeg -3.486899 -0.000000 0.000000
RightFoot -22.223183 -27.106212 15.884449
RightToeBase 24.051514 -0.000000 -0.000000
46
root 18.490016 35.534362 -22.525635 -172.533111 -2.857091 -179.352294
Spine -19.422724 -1.543538 -0.749438
Head 11.231711 -1.950073 2.497748
LeftShoulder -13.413062 -33.903996 23.254445
LeftArm 4.862680 2.839573 -4.088996
LeftForeArm 12.584582 -0.000000 -2.301950
LeftHand -8.827304 -0.000000 -4.155277
LeftHandThumb1 -26.253704 0.000000 33.147579
RightShoulder -13.350873 -4.749219 -11.475232
RightArm 5.232539 35.512656 5.239364
RightForeArm -36.240959 0.000000 5.366712
RightHand -7.558005 -0.000000 7.949974
RightHandThumb1 -24.326973 -0.000000 -32.862282
LeftUpLeg 0.567196 8.547776 1.870318
LeftLeg -5.730967 -0.000000 0.000000
LeftFoot -20.139989 27.264588 -13.880482
LeftToeBase 26.165824 -0.000000 -0.000000
RightUpLeg 1.087431 -9.411750 0.904630
RightLeg -3.495029 -0.000000 0.000000
RightFoot -22.219600 -27.124647 15.859638
RightToeBase 24.055540 -0.000000 -0.000000
